<svg xmlns="http://www.w3.org/2000/svg" width="200" height="200" viewBox="0 0 200 200">
  <circle cx="100" cy="100" r="90" fill="#FF8C02"/>
  <text x="50%" y="50%" dominant-baseline="middle" text-anchor="middle" fill="#FFFFFF" font-family="Montserrat" font-size="48">Muni</text>
  <path d="M100 125.5L92.5 118L85 125.5L92.5 133L100 125.5ZM100 132.5L92.5 125L85 132.5L92.5 140L100 132.5ZM100 139.5L92.5 132L85 139.5L92.5 147L100 139.5ZM92.5 132L85 125L77.5 132L85 139.5L92.5 132ZM107.5 125L100 117.5L92.5 125L100 132.5L107.5 125ZM100 117.5L92.5 110L85 117.5L92.5 125L100 117.5ZM100 124.5L107.5 117L115 124.5L107.5 132L100 124.5ZM107.5 132L115 139.5L122.5 132L115 124.5L107.5 132ZM100 132.5L107.5 125L115 132.5L107.5 140L100 132.5ZM107.5 140L115 147.5L122.5 140L115 132.5L107.5 140ZM100 132.5L92.5 140L85 132.5L92.5 125L100 132.5ZM92.5 140L85 147.5L77.5 140L85 132.5L92.5 140ZM92.5 125L85 117.5L77.5 125L85 132.5L92.5 125ZM85 132.5L77.5 140L70 132.5L77.5 125L85 132.5Z" fill="#FFFFFF"/>
</svg>
